<svg xmlns="http://www.w3.org/2000/svg" xmlns:xlink="http://www.w3.org/1999/xlink" aria-hidden="true" role="img" class="iconify iconify--logos" width="31.88" height="32" preserveAspectRatio="xMidYMid meet" viewBox="0 0 256 257"><defs><linearGradient id="IconifyId1813084fe3ad44879fdd" x1="-.828%" x2="57.636%" y1="7.652%" y2="78.411%"><stop offset="0%" stop-color="#149DEC"></stop><stop offset="100%" stop-color="#0F62FF"/></linearGradient><linearGradient id="IconifyId1813084fe3ad44879fde" x1="80.569%" x2="13.934%" y1="88.971%" y2="17.39%"><stop offset="0%" stop-color="#149DEC"></stop><stop offset="100%" stop-color="#0F62FF"/></linearGradient></defs><path d="M127.961 0l-22.15 38.382H42.195L20.043 0h107.918zm-48.62 96.807l22.192 38.382L78.3 173.61l-44.265-38.424l45.306-38.38zm112.275 76.804l22.192-38.382l42.152 38.382L213.804 256l-22.192-82.389zM78.342 38.382l22.15 38.382L78.342 115.23l-44.223-38.466L78.342 38.382zm94.155 122.04l22.15-38.382l44.223 38.382l-22.15 38.382l-44.223-38.382zm0-83.66l44.223-38.382l22.15 38.382l-44.223 38.382l-22.15-38.382zM127.961 256l-22.15-38.382h89.617l22.15 38.382H127.961z" fill="url(#IconifyId1813084fe3ad44879fdd)"/><path d="M127.961 0l22.15 38.382h63.616L235.877 0H127.961zm48.62 96.807l-22.192 38.382l23.233 38.424l44.265-38.424l-45.306-38.38zM64.306 173.611l-22.192-38.382l-42.152 38.382L42.116 256l22.192-82.389zm49.533-135.229L91.689 38.382l22.15 38.382l44.223-38.466L113.839 38.382zM19.684 160.422l44.223-38.382l22.15-38.382l-44.223-38.382l-22.15 38.382l44.223 38.382l-44.223 38.382zm0-83.66L42.116 38.382L19.966 0L0 76.764l19.684 76.764l22.15-38.382L19.684 76.762zM127.961 256l22.15-38.382h-89.617l-22.15 38.382h89.617z" fill="url(#IconifyId1813084fe3ad44879fde)"/></svg>